<?xml version="1.0" encoding="UTF-8"?>
<!DOCTYPE svg PUBLIC "-//W3C//DTD SVG 1.1//EN" "http://www.w3.org/Graphics/SVG/1.1/DTD/svg11.dtd">
<!-- Creator: CorelDRAW 2018 (64 Bit) -->
<svg xmlns="http://www.w3.org/2000/svg" xml:space="preserve" width="13.0801mm" height="13.08mm" version="1.1" style="shape-rendering:geometricPrecision; text-rendering:geometricPrecision; image-rendering:optimizeQuality; fill-rule:evenodd; clip-rule:evenodd"
viewBox="0 0 173.46 173.46"
 xmlns:xlink="http://www.w3.org/1999/xlink">
 <defs>
  <style type="text/css">
   <![CDATA[
    .str0 {stroke:#5E6C86;stroke-width:5.61;stroke-miterlimit:22.9256}
    .fil1 {fill:#5E6C86}
    .fil0 {fill:white}
   ]]>
  </style>
 </defs>
 <g id="Capa_x0020_1">
  <metadata id="CorelCorpID_0Corel-Layer"/>
  <circle class="fil0 str0" cx="86.73" cy="86.73" r="83.92"/>
  <path class="fil1" d="M167.23 62.92l-18.15 -18.23 -8.75 -7.85 -6.04 -1.51 -5.74 -5.43 -7.25 0.15 -6.34 -1.51 -7.55 1.96 -9.81 1.81 -4.83 1.81 -9.96 6.34 -9.51 12.83 -3.93 8.91 -2.11 9.21 0.6 5.59 3.62 4.08 7.55 2.11 5.13 -2.56 0.91 -4.98 -1.51 -4.53 -3.17 -1.36 -2.57 -3.02 -0.38 -3.43 1.43 -2.6 2.3 -1.09 1.55 -1.77 3.4 -0.83 1.81 -1.58 3.62 -0.64 1.62 -1.28 2.94 -0.6 3.17 0.38c0,0 0.53,0.76 1.09,1.13 0.57,0.38 2.75,1.28 2.75,1.28l1.1 1.4 2 1.13 1.17 1.25 1.74 1.06 0.87 2.79 1.51 2.3 0.38 3.32 0.11 7.44 -2.11 2.11 -0.08 14.94 2.34 1.66 4.53 -0.53 2.94 -2.64 1.36 -0.75 0.3 -1.66 0.96 -1.09 0.72 -2.19 -1.02 -2.94 -1.09 -3.1 -0.45 -2.15 -1.85 -2.49 -0.23 -3.58 1.47 -2.6 2.26 -1.02 2.41 -1.17 3.59 -0.27 3.47 -1.36 2.45 1.7 3.62 2.23 2.56 0.38 2.49 2.56 2.42 1.58 1.96 3.1 2.56 1.74 0.98 4.45 -0.53 4.38 0.75 3.09 -0.83 4.45 0.98 5.74 -1.28 8.23 -4.23 3.85 -5.13 5.51 -3.77 2.11 -4.53 0.6 -3.02 0.75 -4.6 0.91 -1.66 -0.45 -3.47 -0.08 -1.81 2.79 -1.55 7.21 -1.51 1.32 -0.75 2.11 -8.91 2.49 -3.7 4.91 -6.79 3.32 -4.6 0.68 -8.45 -1.58 -3.17 -0.91 -4.38 0.07 -5.13 -0.83 -2.79 -0.83 -12.38 -3.17 -6.64 -2.57 -4.38 -2.72 -4.83 -1.51 -1.81 -2.87 -4.98 -2.57 -5.28 -4.83 -3.02 -4.08 -3.32 -1.96 -3.77 -0.45 -6.82 0.79c-38.78,-97.71 113.16,-170.57 158.72,-54.27z"/>
  <polygon class="fil0" points="86.27,109.91 82.04,115.65 82.64,120.48 85.81,124.85 89.13,128.17 93.06,128.63 96.38,125.76 99.25,121.68 99.4,117.76 98.19,114.74 94.27,115.8 90.64,116.4 88.83,115.95 87.47,113.84 "/>
  <polygon class="fil0" points="14.12,80.02 12.31,81.08 11.85,83.95 12.76,84.89 13.51,86.44 15.89,86.63 17.55,87.84 18.64,88.67 20.87,88.89 22.34,88.89 22.46,86.51 21.63,84.55 20,83.53 18.34,82.55 16.76,82.14 15.78,81.5 "/>
  <polygon class="fil0" points="18.12,56.7 20,55.91 21.66,56.06 22.04,60.48 22.99,63.87 24.15,65.8 24.91,67.8 26.23,68.14 26.87,69.72 28.27,71.08 29.02,76.4 28.49,77.04 26.12,75.76 24.19,69.99 22.65,69.01 21.93,66.93 20.19,65.65 18.46,60.85 "/>
  <polygon class="fil0" points="43.15,26.68 40.13,26.83 39.38,29.1 37.57,30.16 36.81,32.19 34.7,34.61 34.47,37.55 32.81,40.8 32.59,52.87 34.47,55.06 34.93,61.55 36.36,65.48 36.97,71.67 38.78,73.17 39.68,76.8 41.34,78.38 41.95,81.33 43.87,81.67 44.78,83.89 45.98,83.93 46.06,77.4 45.65,75.14 42.02,69.63 41.95,66.01 41.19,64.46 41,57.89 39.57,56.68 38.99,55.44 38.99,53.8 40.7,51.93 40.87,46.21 41.52,39.27 42.12,34.4 43.78,28.55 "/>
  <path class="fil0" d="M67.29 14.02c-0.34,0.04 -3.32,-0.3 -3.32,-0.3l-1.55 1.66 -0.07 1.55 -1.1 0.98 -0.19 2.91 0.87 1.36 2.34 -0.3 1.13 -1.02 -0.3 -2.49 0.75 -1.17 1.09 -0.83 0.98 -0.3 -0.64 -2.04z"/>
  <path class="fil0" d="M105.97 13.31l-4.6 -1.81 -2.94 -2.04 -3.92 -0.6 -4.3 -0.38 -3.62 1.81 -4.98 4.3 -1.81 1.13 -2.87 2.41 -1.13 1.66 -1.43 0.91 -2.64 2.79 -0.91 1.81 -2.26 1.51 -0.38 1.36 -1.66 2.19 -1.13 2.27 -2.49 2.11 -1.89 2.04 -0.38 7.92 -0.83 1.51 -1.21 0.83 -0.45 1.21 -1.74 0.45 0 5.51 -0.98 2.26 -1.13 1.51 -0.07 6.49 -0.3 2.64 0 3.02 1.13 0.3 1.96 -1.06 0.6 -2.26 0.3 -2.94 0.68 -4.15 -0.38 -1.58 2.19 -3.4 0.08 -2.49 0.98 -1.06 1.51 -1.96 0.23 -1.96 1.21 -1.66 1.13 -0.6 1.96 -2.41 1.43 -3.17 2.19 -2.72 1.36 -0.83 2.11 -1.43 1.28 -1.36 0.83 -1.21 2.41 -1.36 1.51 -1.36 1.58 -1.36 1.28 -0.45 3.02 -4.26 3.55 -0.91 2 -0.94 1.92 -1.4c0,0 1.58,-0.87 1.81,-0.87 0.23,0 2.15,-0.49 2.38,-0.72 0.23,-0.23 1.47,-1.62 1.89,-1.89 0.42,-0.26 2,-1.17 2,-1.17l2.19 -0.87 1.74 -1.32z"/>
 </g>
</svg>
