<?xml version="1.0" encoding="UTF-8"?>
<!DOCTYPE svg PUBLIC "-//W3C//DTD SVG 1.1//EN" "http://www.w3.org/Graphics/SVG/1.1/DTD/svg11.dtd">
<!-- Creator: CorelDRAW 2018 (64 Bit) -->
<svg xmlns="http://www.w3.org/2000/svg" xml:space="preserve" width="13.1234mm" height="13.1234mm" version="1.1" style="shape-rendering:geometricPrecision; text-rendering:geometricPrecision; image-rendering:optimizeQuality; fill-rule:evenodd; clip-rule:evenodd"
viewBox="0 0 120.13 120.13"
 xmlns:xlink="http://www.w3.org/1999/xlink">
 <defs>
  <style type="text/css">
   <![CDATA[
    .str0 {stroke:#55664F;stroke-width:3.87;stroke-miterlimit:22.9256}
    .fil1 {fill:#55664F}
    .fil0 {fill:white}
   ]]>
  </style>
 </defs>
 <g id="Capa_x0020_1">
  <metadata id="CorelCorpID_0Corel-Layer"/>
  <g id="_1898218296288">
   <circle class="fil0 str0" cx="60.07" cy="60.07" r="58.13"/>
   <path class="fil1" d="M2.21 65.67l4.25 1.45 6.27 -1.15 3.35 -4.08 1.88 0.21 1.46 -1.88 2.77 0.21 1.31 -1.57 1.15 -0.26 2.09 -2.93 1.41 -1.41 2.35 -5.96 1.15 -2.46 1.26 -1.91 1.28 -0.5 0.71 -1.73 0.97 -0.52 2.8 -4.05 2.3 1.73 0.92 2.3 1.39 1.2 0.18 1.12 1.98 -0.29 0.64 -1.11 1.26 -0.37 0.52 -1.46 1.52 -0.52 0.42 -1.67 1.15 -0.68 0.42 -1.62 1.52 -1.26 0.37 -2.51 1.73 -0.78 1.83 -3.03 0.78 0.05 1.41 -3.03 1.26 -1.36 1.67 -0.78 1.57 -2.72 2.56 -0.42 1.52 -1.41 1.1 1.57 1.91 1.44 1.05 0.78 0.52 1.36 0.99 0.26 0.1 1.15 1.78 1.26 0.42 1.05 1.52 1.46 0.68 1.15 1.52 1.67 1.46 1.2 0.21 1.67 1.36 1.31 1.99 1.93 1.15 1.46 1.88 2.9 1.99 1.67 2.27 1.6 0.86 1.52 1.2 0.6 0.94 0.86 1.12 1.05 2.2 -0.37 3.64 0 2.04 2.35 0.21 2.09 1.46 1.93 0 1.41 2.93 1.46 0.99 3.08 1.05 1.67 0.47 1.26 1.72 1.57 1.94 -0.1 1.1 -0.52 2.66 -0.32c-7.93,69.59 -107.5,70.91 -115.79,0.71z"/>
   <polygon class="fil0" points="32.91,60.89 33.12,54.51 34.69,53.46 34.9,50.85 37.09,47.61 42.74,47.61 45.15,52 41.9,56.39 36.57,59.43 35.32,60.99 "/>
   <polygon class="fil0" points="98.79,54.51 100.88,53.78 103.08,58.59 103.18,60.26 107.68,66.64 104.33,74.28 101.93,74.38 100.88,71.97 99.73,60.16 "/>
   <polygon class="fil0" points="62.61,98.96 64.39,95.4 64.7,92.58 66.58,89.13 68.26,82.43 70.98,78.36 71.18,75.53 72.86,73.96 74.74,67.69 76,65.39 76.31,61.62 80.28,59.64 83.73,65.49 87.39,69.15 91.37,65.7 95.55,58.49 91.16,51.48 88.96,48.55 84.57,42.49 78.45,36.52 74.48,32.39 72.13,30.88 69.83,28.68 68.31,29.78 66.79,35.53 66.74,41.75 65.75,45.1 66.48,49.07 64.91,51.9 64.6,55.77 63.45,58.85 63.29,71.98 62.61,77.62 61.46,80.71 61.41,84.89 60.05,87.51 59.89,92.53 58.17,96.66 59.74,98.91 "/>
  </g>
 </g>
</svg>
