<?xml version="1.0" encoding="UTF-8"?>
<!DOCTYPE svg PUBLIC "-//W3C//DTD SVG 1.1//EN" "http://www.w3.org/Graphics/SVG/1.1/DTD/svg11.dtd">
<!-- Creator: CorelDRAW 2018 (64 Bit) -->
<svg xmlns="http://www.w3.org/2000/svg" xml:space="preserve" width="13.112mm" height="13.112mm" version="1.1" style="shape-rendering:geometricPrecision; text-rendering:geometricPrecision; image-rendering:optimizeQuality; fill-rule:evenodd; clip-rule:evenodd"
viewBox="0 0 102.46 102.46"
 xmlns:xlink="http://www.w3.org/1999/xlink">
 <defs>
  <style type="text/css">
   <![CDATA[
    .str0 {stroke:#749EBC;stroke-width:3.31;stroke-miterlimit:22.9256}
    .fil1 {fill:#749EBC}
    .fil0 {fill:white}
   ]]>
  </style>
 </defs>
 <g id="Capa_x0020_1">
  <metadata id="CorelCorpID_0Corel-Layer"/>
  <g id="_1898218284000">
   <ellipse class="fil0 str0" cx="51.23" cy="51.23" rx="49.57" ry="49.58"/>
   <path class="fil1" d="M3.01 39.63l1.56 4.73 1.24 3.63 1.77 -0.26 2.34 -2.34 0.75 -2.08 0.66 -0.18 0.62 -2.08 0.93 -0.4 0.66 -1.55 0.84 -0.88 0.93 -0.71 0.75 -1.46 0.66 -0.97 0.84 -0.71 0.62 -1.11 0.58 -0.66c0,0 0.8,-0.58 0.97,-0.84 0.18,-0.27 0.4,-0.97 0.53,-1.24 0.13,-0.27 0.53,-1.19 0.53,-1.19l0.97 -0.53 1.46 -1.33 0.66 -0.88 1.11 -0.88 1.24 -1.17 0.35 -0.75 0.84 -0.86 0.64 -0.58c0,0 0.44,-0.29 0.51,-0.46 0.07,-0.18 0.35,-0.93 0.35,-0.93 0,0 0.44,-0.4 0.62,-0.51 0.18,-0.11 0.53,-0.46 0.71,-0.69 0.18,-0.22 0.33,-0.46 0.33,-0.46 0,0 1.06,-0.35 1.26,-0.44 0.2,-0.09 0.91,-0.29 0.91,-0.29 0,0 1.3,-0.29 1.46,-0.4 0.15,-0.11 0.42,-0.46 0.42,-0.46l0.31 -0.33 1.82 -0.99 0.66 -0.44 0.84 -0.58 1.06 -0.53 1.55 -0.35c0,0 0.58,0 0.88,-0.09 0.31,-0.09 1.06,-0.31 1.42,-0.49 0.35,-0.18 1.15,-0.44 1.1,-0.4l1.19 -0.26c0,0 0.13,0.04 0.53,0 0.4,-0.04 0.66,0 1.15,-0.18 0.49,-0.18 1.19,-0.31 1.46,-0.49 0.26,-0.18 0.84,-0.31 0.84,-0.31 0,0 0.75,0.13 1.02,0.13 0.26,0 0.57,0.04 0.84,0.04 0.26,0 0.84,0.04 1.41,-0.09 0.57,-0.13 0.84,-0.18 0.84,-0.18l0.84 -0.26 1.24 0.09 1.99 -0.09 1.33 -0.26c0,0 0.93,-0.09 1.19,-0.13 0.27,-0.04 0.88,-0.09 0.88,-0.09 0,0 0.31,-0.04 0.57,-0.04 0.26,0 1.1,0.04 1.1,0.04l0.84 0 0.53 0.04 0.53 0.18 0.66 0.35 1.06 0.13 0.88 0.26 0.93 0.13 0.88 0.13 0.44 0 0.35 0.84 0.26 0.57 0.35 0.84c-0.8,0.31 -1.1,0.35 -1.1,0.35l-0.66 0.31 -0.53 0.22c0,0 -0.53,-0.04 -0.97,-0.04 -0.44,0 -0.93,0.04 -1.32,0.04 -0.4,0 -0.84,0.04 -0.84,0.04l-0.75 0.09 0.04 0.53 -0.53 0.4 -0.88 0.44 -0.57 0.57 0 0.71 -0.84 0.26 0.09 0.88 0.57 0.4 0.88 0 0.88 0.31 0.53 0.18c0,0 0.53,0.09 0.84,0.09 0.31,0 0.57,-0.09 0.97,-0.09 0.4,0 0.8,0 0.8,0 0,0 0.97,0.22 1.24,0.35 0.26,0.13 0.97,0.31 0.97,0.31 0,0 1.15,0.13 1.41,0.18 0.27,0.04 1.06,0.4 1.06,0.4l1.71 0.29 0.99 -0.04c0,0 0.62,0.03 0.71,0.04 0.09,0.01 0.52,0.04 0.64,0.04 0.12,0 0.39,0 0.39,0l0.37 0.42 0.4 0.44 0.49 0.18 0.53 0.2 0.46 0.35 0.22 0.64 0.15 0.49 0.42 0.49 0.62 0.66 -0.13 0.73 0.15 0.71 -0.22 0.69 -0.6 0.26 -0.51 0.09 -0.46 -0.79 -0.18 -0.51 -0.49 -0.46c0,0 -0.69,-0.22 -0.84,-0.22 -0.15,0 -0.44,0.04 -0.62,0 -0.18,-0.04 -0.62,-0.35 -0.62,-0.35l-0.46 -0.53 -0.66 -0.22c0,0 -0.46,-0.13 -0.68,-0.13 -0.22,0 -0.88,0.07 -0.88,0.07 0,0 -1.19,0.33 -1.39,0.33 -0.2,0 -0.49,0.02 -0.49,0.02l-0.66 -0.09 -0.57 0.07 -0.53 0.4 -0.31 0.49 -0.35 0.6 -0.49 0.6 -0.24 0.71 -0.26 0.71 0.07 0.75 0.07 1.41 -0.07 0.75 0.31 0.57c0,0 0.4,0.62 0.62,0.75 0.22,0.13 1.28,0.44 1.28,0.44 0,0 0.35,0.2 0.73,0.24 0.38,0.04 0.8,0.26 0.8,0.26l1.28 0.46 0.71 0.31 0.11 0.66 0.2 0.57 0.68 0.51c0,0 0.33,0.51 0.4,0.73 0.07,0.22 0.15,0.33 0.24,0.46 0.09,0.13 0.64,1.33 0.64,1.33l0.26 1.47 0.01 0.67c0,0 0.02,0.68 0.07,0.84 0.04,0.15 0.2,0.78 0.2,0.91 0,0.12 -0.17,0.43 -0.19,0.53 -0.02,0.1 -0.31,0.8 -0.31,0.8l-0.3 0.46 -0.6 0.12c0,0 -0.53,-0.43 -0.6,-0.54 -0.07,-0.11 -0.34,-0.56 -0.51,-0.71 -0.17,-0.14 -0.46,-0.36 -0.53,-0.44 -0.07,-0.08 -0.51,-0.57 -0.59,-0.66 -0.08,-0.09 -0.29,-0.32 -0.36,-0.5 -0.08,-0.18 -0.4,-0.35 -0.5,-0.39 -0.1,-0.03 -0.49,-0.11 -0.59,-0.15 -0.1,-0.04 -0.49,-0.62 -0.49,-0.62 0,0 -0.91,-0.3 -1.03,-0.32 -0.12,-0.02 -0.99,-0.22 -1.06,-0.23 -0.07,-0.01 -1.2,-0.43 -1.2,-0.43 0,0 -0.33,0.11 -0.66,0.04 -0.33,-0.07 -0.71,-0.07 -0.71,-0.07 0,0 -0.6,0.31 -0.73,0.42 -0.13,0.11 -0.35,0.6 -0.35,0.6 0,0 -0.26,0.44 -0.42,0.62 -0.15,0.18 -0.44,0.57 -0.49,0.75 -0.04,0.18 0,0.49 -0.09,0.88 -0.09,0.4 -0.31,0.9 -0.35,1.21 -0.04,0.31 0.02,0.6 0.15,0.75 0.13,0.15 0.57,0.37 0.57,0.51 0,0.13 -0.02,1.44 0,1.66 0.02,0.22 0.38,0.68 0.44,0.91 0.07,0.22 0.11,0.44 0.2,0.6 0.09,0.15 0.09,0.13 0.22,0.29 0.13,0.15 0.71,0.82 0.71,0.82 0,0 0.55,1.19 0.57,1.33 0.02,0.13 0.02,0.99 -0.04,1.19 -0.07,0.2 -0.15,0.69 -0.15,0.88 0,0.2 -0.09,0.97 -0.13,1.17 -0.04,0.2 -0.11,0.53 -0.18,0.75 -0.07,0.22 -0.24,0.44 -0.24,0.44l-0.88 -0.68c0,0 -0.55,-1.28 -0.57,-1.48 -0.02,-0.2 -0.29,-0.9 -0.44,-0.95 -0.15,-0.04 -1.06,-0.84 -1.1,-1.02 -0.04,-0.18 0.04,-0.64 0.09,-0.82 0.04,-0.18 -0.13,-0.91 -0.13,-1.13 0,-0.22 -0.11,-0.55 -0.11,-0.55 0,0 -1.24,-0.82 -1.35,-1.04 -0.11,-0.22 -0.62,-0.64 -0.82,-0.64 -0.2,0 -0.82,0 -0.82,0 0,0 -1.3,-0.2 -1.59,-0.31 -0.29,-0.11 -0.66,-0.2 -0.93,-0.22 -0.27,-0.02 -1.94,-0.24 -1.94,-0.24l-0.93 0.33 -1.13 0.33 -1.83 0.79 -1.59 0.42c0,0 -0.49,0.4 -0.71,0.55 -0.22,0.15 -2.14,1.06 -2.39,1.17 -0.24,0.11 -1.24,0.55 -1.32,0.73 -0.09,0.18 -0.38,0.99 -0.53,1.3 -0.15,0.31 -0.77,1.39 -0.97,1.74 -0.2,0.35 -0.55,1.13 -0.8,1.57 -0.24,0.44 -0.33,0.79 -0.38,1.06 -0.04,0.26 0.02,0.46 -0.11,0.75 -0.13,0.29 -0.53,0.93 -0.57,1.19 -0.04,0.27 0.4,0.97 0.4,0.97l0.11 1.22 0.49 0.75c0,0 0.31,0.88 0.4,1.24 0.09,0.35 0.13,0.62 0.18,0.88 0.04,0.26 0.22,0.84 0.22,0.84l0.35 0.31 0.93 1.9 1.5 1.72 2.16 1.02 0.44 0.62 0.4 0.35 0.13 0.53 0.53 0.26 1.41 1.02 1.02 0.31 2.08 0.35c0,0 0.31,0.09 0.57,0.18 0.26,0.09 0.79,0.09 0.79,0.09l1.94 0.88 3.36 -0.18 0.84 0.13 3.05 0.44 0.71 0.09 0.79 0 0.71 -0.04 0.84 0.04c0,0 0.4,0.18 0.66,0.26 0.26,0.09 0.71,0.22 1.06,0.31 0.35,0.09 1.63,0.31 2.25,0.31 0.62,0 1.06,0 1.5,-0.13 0.44,-0.13 0.8,-0.26 1.1,-0.31 0.31,-0.04 1.02,-0.22 1.02,-0.22l0.57 -0.18 2.65 -1.86c0,0 1.19,-0.09 1.46,-0.09 0.26,0 0.75,0.04 1.19,-0.04 0.44,-0.09 1.1,-0.09 1.68,-0.31 0.57,-0.22 1.63,-0.88 1.63,-0.88l0.62 -1.1c0,0 0.22,-0.18 1.1,-0.71 0.88,-0.53 1.15,-0.71 1.33,-1.02 0.18,-0.31 0.31,-0.75 0.49,-1.02 0.18,-0.26 0.53,-0.97 0.79,-1.37 0.27,-0.4 0.49,-0.49 0.75,-0.97 0.26,-0.49 0.44,-0.66 0.79,-1.06 0.35,-0.4 0.66,-0.75 0.93,-0.97 0.27,-0.22 0.35,-0.13 0.71,-0.66 0.35,-0.53 0.53,-0.84 0.71,-1.28 0.18,-0.44 0.18,-0.57 0.4,-1.1 0.22,-0.53 0.31,-0.75 0.49,-1.06 0.18,-0.31 0.18,-0.53 0.4,-0.88 0.22,-0.35 0.27,-0.4 0.49,-0.75 0.22,-0.35 0.35,-0.26 0.57,-1.1 0.22,-0.84 0.93,-1.94 0.93,-1.94 0,0 0.22,-0.49 0.22,-0.84 0,-0.35 0.04,-1.06 0.09,-1.41 0.04,-0.35 0.09,-0.49 0.13,-0.97 0.04,-0.49 0.09,-1.06 0.18,-1.41 0.09,-0.35 0.35,-0.44 0.53,-1.02 0.18,-0.57 0.26,-0.75 0.35,-1.33 0.09,-0.57 0.35,-0.84 0.13,-1.46 -0.22,-0.62 -0.35,-1.06 -0.31,-1.46 0.04,-0.4 0.53,-1.37 0.71,-1.68 0.18,-0.31 0.31,-0.35 0.31,-0.75 0,-0.4 -0,-0.8 0.09,-1.1 0.09,-0.31 0.22,-0.71 0.22,-0.71l0.4 -0.66c7.99,37.36 -22.94,63.09 -52.35,60.8 -27.6,-2.63 -51.53,-30.46 -43.86,-60.98z"/>
   <path class="fil0" d="M19.5 39.07l2.41 0.18 1.7 0 1.52 -0.53 2.86 -1.77c0,0 0.8,-0.18 1.43,-0.35 0.62,-0.18 1.43,-0.26 1.43,-0.26l3.66 0c0,0 1.69,0.09 2.32,-0.09 0.62,-0.18 1.25,-0.35 1.78,-0.44 0.54,-0.09 2.14,-0.26 2.14,-0.26 0,0 1.16,0.09 1.69,0.09 0.54,0 2.77,0 2.77,0l0.54 0.44 2.3 1.5 1.86 0.62 1.94 0.97 1.24 0.88c0,0 1.68,1.06 2.21,1.24 0.53,0.18 1.41,0.53 1.41,0.53l3.36 1.41 1.06 -1.94 1.33 -1.15 1.5 -0.97 1.68 -1.59 0.09 -3 -1.15 -0.53 -0.71 -0.62 -0.88 -0.44 -1.41 -0.88 -0.53 -1.59 0.71 -0.88 0.62 -0.71 1.06 -0.62 0.79 -0.62 -0.04 -0.62 -0.35 -0.97 -0.18 -0.75 -1.02 0.13 -1.41 0.71 -0.57 0.31 -0.53 0 -1.06 -0.35 -0.4 -0.57 -1.55 -0.79 -0.09 -0.62 -0.44 -1.19 -0.13 -1.28 0.53 -0.97c0,0 0.44,-0.53 0.57,-0.8 0.13,-0.26 0.88,-1.1 0.88,-1.1 0,0 0.53,-0.53 0.71,-0.8 0.18,-0.26 0.31,-0.79 0.31,-0.79l0.26 -0.66 0.13 -0.71c0,0 -1.15,-0.44 -1.46,-0.44 -0.31,0 -2.21,-0.04 -2.92,0.09 -0.71,0.13 -2.12,0.31 -2.56,0.31 -0.44,0 -1.55,0.04 -1.9,0.04 -0.35,0 -1.1,0.04 -1.1,0.04l-1.19 0.44 -1.02 0.4c0,0 -0.22,0.35 -0.53,0.44 -0.31,0.09 -1.33,0.09 -1.59,0.09 -0.26,0 -0.97,0.04 -0.97,0.04l-1.1 0.04 -1.59 0.18 -1.06 0.31 -1.41 0.75 -0.84 0.4 -0.79 0.71 -0.93 0.71 -1.33 0.62 -0.75 0.88 -0.71 0.62 -1.19 0.4 -0.53 0.88 -0.4 0.57 -1.24 0.53c0,0 -0.4,0.35 -0.53,0.62 -0.13,0.26 -0.75,0.71 -0.75,0.71l-0.97 0.53c-0.4,0.53 -0.4,0.79 -0.4,0.79l-0.93 1.15 -0.71 0.62 -0.79 1.41c0,0 -0.53,0.55 -0.77,0.68 -0.24,0.13 -0.82,0.51 -0.97,0.64 -0.15,0.13 -0.86,0.91 -0.86,0.91l-0.6 1.04 -0.62 0.24 -0.24 1.1 -0.79 1.15 -0.35 0.62 -0.22 0.84 -0.71 1.13z"/>
   <path class="fil0" d="M29.57 68.2l-1.86 -0.62 -1.24 -1.59 0.62 -1.86 -1.15 -1.41 -1.24 -0.88 -1.68 -0.53 -1.5 -1.24 -2.92 -0.79 -1.59 0.09 -1.77 1.15 -0.53 1.41 -1.06 0.88 -0.88 1.77 0.53 1.68 0.62 1.86 0 1.5 -0.09 1.94 0.18 1.15 0.71 2.3 0.35 0.97 0.62 1.24 0.53 1.5 0.35 1.59 1.77 1.77 1.06 0.71 1.41 1.41c0,0 0.97,0.44 1.24,0.97 0.26,0.53 1.59,1.59 1.59,1.59 0,0 1.77,1.86 2.21,2.47 0.44,0.62 0.79,1.24 0.79,1.24l0.71 1.15 1.24 0.71 1.86 1.59 1.33 0.53c0,0 0.62,0 1.15,0 0.53,0 0.97,0 0.97,0l0.97 -1.06 -0.09 -0.88 0.35 -2.03 0 -1.06 0.53 -1.06 0.88 -0.44 1.94 -0.53 1.59 1.15 0.97 -0.35 2.21 -0.26 2.03 0.35 0.8 0.44 1.5 0.35 1.59 0 2.12 0 1.15 0 1.06 0.35 0.71 0.79c0,0 0.44,0.09 0.97,0.09 0.53,0 1.94,0 1.94,0 0,0 1.15,0.09 2.03,0 0.88,-0.09 1.41,-0.09 1.94,-0.09 0.53,0 2.92,-0.26 2.92,-0.26 0,0 0.35,-0 1.15,0.09 0.79,0.09 1.77,0.09 1.77,0.09 0,0 0.62,0.09 1.59,-0.27 0.97,-0.35 1.41,-0.71 1.94,-0.79 0.53,-0.09 1.68,-0.44 1.68,-0.44 0,0 0.44,-0.26 1.15,-0.26 0.71,0 1.33,0 1.33,0l0.88 -0.97 0.71 -0.71 2.03 -0.53 1.86 -0.26 1.41 -1.24 0.71 -0.71 0.4 -0.84 1.19 -0.57 0.75 -0.44c0,0 0.31,-0.31 0.49,-0.66 0.18,-0.35 0.27,-0.53 0.27,-0.53 0,0 0.26,-0.31 0.4,-0.62 0.13,-0.31 0.09,-0.66 0.35,-0.8 0.26,-0.13 0.49,-0.35 0.75,-0.49 0.26,-0.13 0.49,-0.26 0.75,-0.49 0.26,-0.22 0.62,-0.53 0.62,-0.53 0,0 0.22,-0.35 0.4,-0.66 0.18,-0.31 0.18,-0.49 0.35,-0.79 0.18,-0.31 0.27,-0.44 0.4,-0.71 0.13,-0.26 0.22,-0.44 0.31,-0.79 0.09,-0.35 0.18,-0.53 0.4,-0.88 0.22,-0.35 0.4,-0.4 0.4,-0.66 0,-0.26 -0.18,-0.31 -0.18,-0.75 0,-0.44 0,-0.93 -0.04,-1.19 -0.04,-0.26 -1.46,-0.31 -1.46,-0.31 0,0 -1.37,0.57 -1.63,0.66 -0.27,0.09 -0.62,0.35 -0.97,0.53 -0.35,0.18 -0.57,0.4 -0.84,0.62 -0.27,0.22 -0.71,0.62 -0.71,0.62 0,0 -0.4,0.31 -0.66,0.49 -0.26,0.18 -0.8,0.66 -1.37,0.66 -0.57,0 -0.93,-0.27 -1.37,0.13 -0.44,0.4 -0.79,0.8 -0.79,0.8l-0.44 0.66c0,0 -0.31,0.22 -0.66,0.35 -0.35,0.13 -0.62,0.22 -1.24,0.4 -0.62,0.18 -1.15,0.35 -1.15,0.35 0,0 -0.04,-0 -0.53,0.13 -0.49,0.13 -0.53,0.22 -0.97,0.4 -0.44,0.18 -0.57,0.22 -1.1,0.31 -0.53,0.09 -0.57,0.13 -1.06,0.13 -0.49,0 -1.41,0.09 -1.86,0.22 -0.44,0.13 -0.88,0.44 -1.15,0.53 -0.26,0.09 -0.4,0.18 -0.93,0.35 -0.53,0.18 -0.62,0.22 -0.93,0.22 -0.31,0 -0.84,0.09 -1.19,0 -0.35,-0.09 -1.24,-0.09 -1.24,-0.09 0,0 -0.49,-0.04 -0.84,0 -0.35,0.04 -0.44,0.09 -0.88,0.18 -0.44,0.09 -1.15,0.31 -1.15,0.31 0,0 -0.88,0.18 -1.28,0.13 -0.4,-0.04 -1.41,-0.31 -1.41,-0.31l-0.75 -0.26c0,0 -0.93,-0.22 -1.19,-0.26 -0.26,-0.04 -0.44,-0.04 -0.71,0 -0.26,0.04 -0.53,0.18 -0.84,0.18 -0.31,0 -1.15,0 -1.15,0 0,0 -0.49,0.04 -0.84,0 -0.35,-0.04 -1.19,-0.27 -1.19,-0.27l-5.57 -0.93c0,0 -1.77,0.44 -2.25,0.53 -0.49,0.09 -0.97,0.27 -1.59,0.31 -0.62,0.04 -1.15,0.13 -2.08,0.13 -0.93,0 -1.55,-0.13 -2.21,-0.13 -0.66,0 -1.46,-0.04 -1.46,-0.04 0,0 -0.57,-0.71 -1.1,-0.97 -0.53,-0.26 -1.15,-0.62 -1.72,-0.71 -0.57,-0.09 -0.79,-0.18 -1.28,-0.18 -0.49,0 -1.28,0 -1.28,0l-2.08 0.84c0,0 -0.35,0.18 -0.71,0.35 -0.35,0.18 -0.44,0.35 -0.75,0.57 -0.31,0.22 -0.35,0.35 -0.71,0.49 -0.35,0.13 -0.26,0.13 -0.57,0.18 -0.31,0.04 -2.34,-1.19 -2.34,-1.19 0,0 -0.4,-0.71 -0.75,-1.06 -0.35,-0.35 -0.49,-0.44 -0.88,-0.8 -0.4,-0.35 -0.57,-0.4 -0.97,-0.84 -0.4,-0.44 -0.57,-0.53 -0.88,-1.28 -0.31,-0.75 -0.31,-0.88 -0.35,-1.19 -0.04,-0.31 -0.13,-0.57 -0.26,-0.88 -0.13,-0.31 -0.22,-0.57 -0.09,-1.1 0.13,-0.53 0.31,-1.19 0.31,-1.19l0.04 -1.24 0 -0.53c0,0 0.31,-0.49 0.71,-0.49 0.4,0 0.71,0 0.71,0l0.71 0.09c0,0 0.4,0.22 0.75,0.4 0.35,0.18 0.93,0.35 0.93,0.35l0.84 0.18c0,0 0.26,0 0.62,0 0.35,0 0.75,0.04 0.75,0.04 0,0 0.4,0 0.66,-0.18 0.27,-0.18 0.71,-0.71 0.71,-0.71z"/>
  </g>
 </g>
</svg>
