<?xml version="1.0" encoding="UTF-8"?>
<!DOCTYPE svg PUBLIC "-//W3C//DTD SVG 1.1//EN" "http://www.w3.org/Graphics/SVG/1.1/DTD/svg11.dtd">
<!-- Creator: CorelDRAW 2018 (64 Bit) -->
<svg xmlns="http://www.w3.org/2000/svg" xml:space="preserve" width="13.5033mm" height="13.5032mm" version="1.1" style="shape-rendering:geometricPrecision; text-rendering:geometricPrecision; image-rendering:optimizeQuality; fill-rule:evenodd; clip-rule:evenodd"
viewBox="0 0 184.08 184.08"
 xmlns:xlink="http://www.w3.org/1999/xlink">
 <defs>
  <style type="text/css">
   <![CDATA[
    .str0 {stroke:#5E6C86;stroke-width:11.54;stroke-miterlimit:22.9256}
    .fil1 {fill:#5E6C86}
    .fil0 {fill:white}
   ]]>
  </style>
 </defs>
 <g id="Capa_x0020_1">
  <metadata id="CorelCorpID_0Corel-Layer"/>
  <circle class="fil0 str0" cx="92.04" cy="92.04" r="86.27"/>
  <path class="fil1" d="M174.79 67.56l-18.65 -18.74 -9 -8.07 -6.21 -1.55 -5.9 -5.59 -7.45 0.15 -6.52 -1.55 -7.76 2.02 -10.09 1.86 -4.97 1.86 -10.24 6.52 -9.77 13.19 -4.04 9.16 -2.17 9.46 0.62 5.74 3.72 4.19 7.76 2.17 5.28 -2.64 0.93 -5.12 -1.55 -4.66 -3.26 -1.4 -2.64 -3.1 -0.39 -3.53 1.47 -2.68 2.37 -1.12 1.59 -1.82 3.49 -0.85 1.86 -1.63 3.72 -0.66 1.67 -1.32 3.02 -0.62 3.26 0.39c0,0 0.54,0.78 1.12,1.16 0.58,0.39 2.83,1.32 2.83,1.32l1.13 1.44 2.06 1.16 1.2 1.28 1.78 1.09 0.89 2.87 1.55 2.37 0.39 3.41 0.12 7.65 -2.17 2.17 -0.08 15.36 2.4 1.71 4.66 -0.54 3.02 -2.72 1.4 -0.78 0.31 -1.71 0.99 -1.12 0.74 -2.25 -1.05 -3.02 -1.12 -3.18 -0.47 -2.21 -1.9 -2.56 -0.23 -3.68 1.51 -2.68 2.33 -1.05 2.48 -1.2 3.69 -0.27 3.57 -1.4 2.52 1.74 3.72 2.29 2.64 0.39 2.56 2.64 2.48 1.63 2.02 3.18 2.64 1.78 1.01 4.58 -0.54 4.5 0.78 3.18 -0.85 4.58 1.01 5.9 -1.32 8.46 -4.34 3.96 -5.28 5.66 -3.88 2.17 -4.66 0.62 -3.1 0.78 -4.73 0.93 -1.71 -0.47 -3.57 -0.08 -1.86 2.87 -1.59 7.41 -1.55 1.36 -0.78 2.17 -9.16 2.56 -3.8 5.04 -6.98 3.41 -4.73 0.7 -8.69 -1.63 -3.26 -0.93 -4.5 0.08 -5.28 -0.85 -2.87 -0.85 -12.72 -3.26 -6.83 -2.64 -4.5 -2.79 -4.96 -1.55 -1.86 -2.95 -5.12 -2.64 -5.43 -4.96 -3.1 -4.19 -3.41 -2.02 -3.88 -0.46 -7.01 0.81c-39.87,-100.44 116.32,-175.34 163.16,-55.79z"/>
  <polygon class="fil0" points="91.56,115.87 87.22,121.76 87.84,126.73 91.1,131.23 94.51,134.64 98.54,135.11 101.96,132.16 104.91,127.97 105.06,123.93 103.82,120.83 99.79,121.92 96.06,122.54 94.2,122.07 92.8,119.9 "/>
  <polygon class="fil0" points="17.4,85.15 15.53,86.23 15.07,89.18 16,90.15 16.77,91.74 19.22,91.93 20.93,93.17 22.05,94.03 24.34,94.26 25.85,94.26 25.97,91.82 25.11,89.8 23.45,88.75 21.74,87.75 20.11,87.32 19.1,86.66 "/>
  <polygon class="fil0" points="21.51,61.17 23.45,60.36 25.15,60.51 25.54,65.05 26.51,68.54 27.71,70.52 28.49,72.58 29.85,72.93 30.51,74.56 31.94,75.95 32.72,81.42 32.17,82.08 29.73,80.76 27.75,74.83 26.16,73.82 25.43,71.68 23.64,70.37 21.86,65.44 "/>
  <polygon class="fil0" points="47.24,30.31 44.14,30.47 43.37,32.8 41.5,33.88 40.73,35.98 38.55,38.46 38.32,41.49 36.61,44.82 36.38,57.23 38.32,59.48 38.79,66.16 40.26,70.19 40.88,76.55 42.75,78.1 43.68,81.83 45.38,83.46 46,86.48 47.98,86.83 48.91,89.12 50.15,89.16 50.23,82.45 49.81,80.12 46.08,74.46 46,70.73 45.23,69.14 45.04,62.39 43.56,61.15 42.96,59.87 42.96,58.19 44.72,56.27 44.9,50.39 45.56,43.25 46.18,38.25 47.89,32.23 "/>
  <path class="fil0" d="M72.06 17.3c-0.35,0.04 -3.41,-0.31 -3.41,-0.31l-1.59 1.71 -0.08 1.59 -1.13 1.01 -0.19 2.99 0.89 1.4 2.41 -0.31 1.16 -1.05 -0.31 -2.56 0.78 -1.2 1.12 -0.85 1.01 -0.31 -0.66 -2.09z"/>
  <path class="fil0" d="M111.82 16.56l-4.73 -1.86 -3.03 -2.09 -4.03 -0.62 -4.42 -0.39 -3.72 1.86 -5.12 4.42 -1.86 1.16 -2.95 2.48 -1.16 1.71 -1.47 0.93 -2.72 2.87 -0.93 1.86 -2.33 1.55 -0.39 1.4 -1.71 2.25 -1.16 2.33 -2.56 2.17 -1.94 2.1 -0.39 8.15 -0.85 1.55 -1.24 0.85 -0.46 1.24 -1.78 0.46 0 5.66 -1.01 2.33 -1.16 1.55 -0.08 6.67 -0.31 2.72 0 3.1 1.16 0.31 2.02 -1.09 0.62 -2.33 0.31 -3.03 0.7 -4.27 -0.39 -1.63 2.25 -3.49 0.08 -2.56 1.01 -1.09 1.55 -2.02 0.23 -2.02 1.24 -1.71 1.16 -0.62 2.02 -2.48 1.47 -3.26 2.25 -2.79 1.4 -0.85 2.17 -1.47 1.32 -1.4 0.85 -1.24 2.48 -1.4 1.55 -1.4 1.63 -1.4 1.32 -0.46 3.1 -4.38 3.65 -0.93 2.06 -0.97 1.98 -1.43c0,0 1.63,-0.89 1.86,-0.89 0.23,0 2.21,-0.5 2.44,-0.74 0.23,-0.23 1.51,-1.67 1.94,-1.94 0.43,-0.27 2.06,-1.2 2.06,-1.2l2.25 -0.89 1.79 -1.36z"/>
 </g>
</svg>
