<?xml version="1.0" encoding="UTF-8"?>
<!DOCTYPE svg PUBLIC "-//W3C//DTD SVG 1.1//EN" "http://www.w3.org/Graphics/SVG/1.1/DTD/svg11.dtd">
<!-- Creator: CorelDRAW 2018 (64 Bit) -->
<svg xmlns="http://www.w3.org/2000/svg" xml:space="preserve" width="13.1234mm" height="13.1234mm" version="1.1" style="shape-rendering:geometricPrecision; text-rendering:geometricPrecision; image-rendering:optimizeQuality; fill-rule:evenodd; clip-rule:evenodd"
viewBox="0 0 94.28 94.28"
 xmlns:xlink="http://www.w3.org/1999/xlink">
 <defs>
  <style type="text/css">
   <![CDATA[
    .str0 {stroke:#C92C19;stroke-width:3.04;stroke-miterlimit:22.9256}
    .fil0 {fill:#C92C19}
    .fil1 {fill:white}
   ]]>
  </style>
 </defs>
 <g id="Capa_x0020_1">
  <metadata id="CorelCorpID_0Corel-Layer"/>
  <g id="_1898216237472">
   <circle class="fil0 str0" cx="47.14" cy="47.14" r="45.62"/>
   <path class="fil1" d="M58.02 87.77c0.22,-0.16 0.46,-0.3 0.7,-0.42 0.39,-0.19 0.81,-0.12 1.23,-0.24 0.4,-0.11 0.82,-0.64 1.24,-0.7 0.36,-0.05 0.73,0.15 1.1,0.12l-2.16 -2.48 -1.92 -2.4 -0.08 -3.27 0.72 -2.32 1.12 -1.92 2.72 -1.6 2.56 -3.91 1.44 -1.44 0.56 -2.16 -0.24 -2.32 -1.68 0.56 -1.12 1.04 -0.64 1.12 -1.76 0.08 -0.48 -1.04 -0.4 -2.08 0.4 -1.52c0,0 0.56,-1.12 0.88,-1.6 0.32,-0.48 0.96,-1.28 0.96,-1.28l1.12 -0.64 0.8 -0.32 0.16 -1.68 -0.24 -1.44 1.04 -1.04 -0.64 -0.96 -0.8 -0.56 -0.4 -1.6 0.4 -0.72 0.08 -1.52 -0.32 -1.08 -0.32 1c0,0 -0.3,0.96 -0.38,1.22 -0.08,0.26 -0.42,0.84 -0.42,0.84l-0.4 0.54 -0.46 0.6 -0.52 0.42 -0.58 0.32 -0.22 0.5 -1.1 0.9 -0.62 0.46c0,0 -0.34,0.18 -0.46,0.18 -0.12,0 -0.62,0.18 -0.88,0.12 -0.26,-0.06 -0.8,-0.12 -1,-0.22 -0.2,-0.1 -0.72,-0.42 -0.92,-0.62 -0.2,-0.2 -0.56,-0.76 -0.68,-0.98 -0.12,-0.22 -0.32,-0.62 -0.44,-0.86 -0.12,-0.24 -0.32,-0.64 -0.42,-0.96 -0.1,-0.32 -0.26,-0.7 -0.26,-0.7l-0.66 -0.78c0,0 -0.64,-0.52 -0.72,-0.68 -0.08,-0.16 -0.1,-0.38 -0.2,-0.56 -0.1,-0.18 -0.3,-0.94 -0.34,-1.1 -0.04,-0.16 -0.2,-0.46 -0.2,-0.46l-0.22 -0.48c0,0 -0.34,-0.5 -0.36,-0.64 -0.02,-0.14 0.04,-0.24 -0.02,-0.36 -0.06,-0.12 -0.48,-0.5 -0.48,-0.5l-0.36 -0.26c0,0 -0.18,-0.26 -0.22,-0.4 -0.04,-0.14 -0.08,-0.48 -0.1,-0.76 -0.02,-0.28 -0.02,-0.34 -0.02,-0.34l-0.56 -0.26 -1.78 -1.9c0,0 -0.24,-0.74 -0.24,-0.9 0,-0.16 -0.14,-0.44 -0.09,-0.32 0,0 -1.08,-0.84 -1.14,-0.96 -0.06,-0.12 -0.04,-0.14 -0.14,-0.34 -0.1,-0.2 -0.88,-0.84 -0.88,-0.84 0,0 -0.34,0.58 -0.28,0.7 0.06,0.12 0.24,0.6 0.28,0.86 0.04,0.26 0.16,0.7 0.22,0.9 0.06,0.2 0.24,1.04 0.1,1.53 -0.14,0.5 -0.16,0.82 -0.14,1 0.02,0.18 0.14,0.38 0.24,0.5 0.1,0.12 0.58,0.48 0.76,0.7 0.18,0.22 0.24,0.7 0.28,0.84 0.04,0.14 0.08,0.34 0.12,0.56 0.04,0.22 0.14,0.34 0.14,0.6 0,0.26 0,2.27 0,2.27 0,0 0.08,0.94 0.08,1.16 0,0.22 0.02,0.64 -0.02,0.88 -0.04,0.24 -0.16,0.66 -0.26,0.92 -0.1,0.26 -0.28,0.84 -0.28,0.84l-0.56 0.56c0,0 -0.68,0.32 -0.72,0.46 -0.04,0.14 -0.12,0.74 -0.12,0.88 0,0.14 0.02,0.4 0.02,0.54 0,0.14 -0.22,0.46 -0.38,0.58 -0.16,0.12 -0.3,0.18 -0.46,0.44 -0.16,0.26 -0.79,1.56 -0.88,1.7 -0.09,0.14 -0.18,0.37 -0.24,0.49 -0.06,0.12 -0.54,0.38 -0.64,0.4 -0.1,0.02 -0.35,0.13 -0.4,0.21 -0.05,0.08 -0.45,0.58 -0.45,0.58 0,0 -1.37,1.19 -1.55,1.21 -0.18,0.02 -0.58,0.08 -0.9,0.1 -0.32,0.02 -0.68,0.04 -0.94,0.02 -0.26,-0.02 -0.88,-0.08 -1.06,-0.04 -0.18,0.04 -0.3,0.1 -0.52,0.24 -0.22,0.14 -0.62,0.44 -0.82,0.54 -0.2,0.1 -0.4,0.2 -0.64,0.12 -0.24,-0.08 -0.7,-0.2 -0.9,-0.28 -0.2,-0.08 0,-0.02 -0.76,-0.3 -0.76,-0.28 -1.02,-0.36 -1.02,-0.36 0,0 -0.26,0 -0.46,0 -0.2,0 -0.48,0.06 -0.48,0.06l-0.26 0.16 0.34 1.16 0.66 0.64c0,0 0.3,0.94 0.34,1.22 0.04,0.28 0.5,0.62 0.5,0.62l0.3 0.56 1.79 2.81c0,0 -0.04,0.28 -0.04,0.56 0,0.28 0.12,0.88 0.12,0.88l0.4 0.76c0,0 0.16,0.44 0.28,0.84 0.12,0.4 0.32,0.88 0.4,1.16 0.08,0.28 0.2,0.72 0.2,0.72 0,0 0.04,0.48 0.04,0.84 0,0.36 -0.12,1.2 -0.12,1.47 0,0.28 -0.04,0.24 0,0.68 0.04,0.44 -0.24,0.92 -0.24,0.92l-0.6 0.4c0,0 -0.16,0.32 -0.32,0.56 -0.16,0.24 -0.28,0.28 -0.32,0.6 -0.04,0.32 0,0.84 0,0.84l-1.59 1.08 -2.39 1.19 -0.88 1.75 -0.6 0.6 -0.24 0.52 -0.12 0.72 0.32 0.56 0.6 0.16 0.72 0.36 0.48 0.36 0.8 0.52 0.56 0.48 1 0.36 1.67 0.16c0,0 0.48,0.2 0.68,-0.04 0.2,-0.24 0.4,-0.6 0.52,-0.84 0.12,-0.24 0.52,-0.72 0.52,-0.72l0.52 -0.32 1.2 -0.24c0,0 0.4,-0.76 0.24,-1.16 -0.16,-0.4 -0.36,-0.8 -0.48,-1.43 -0.12,-0.64 -0.2,-0.72 -0.2,-1.23 0,-0.52 0.04,-0.92 0.12,-1.59 0.08,-0.68 0.12,-0.4 0.12,-1 0,-0.6 0,-0.64 0,-0.88 0,-0.24 -0.4,-1.08 -0.4,-1.08 0,0 -0.08,-0.28 0.08,-0.56 0.16,-0.28 0.36,-0.52 0.36,-0.52l0.8 -0.8 0.72 0.12c0,0 0.56,0.28 0.84,0.44 0.28,0.16 0.84,0.4 0.84,0.4l0.52 0.2c0,0 0.84,0.08 0.96,-0.16 0.12,-0.24 0.24,-0.48 0.24,-0.48 0,0 -0.36,-0.84 -0.48,-1.39 -0.12,-0.56 -0.2,-0.92 -0.2,-0.92 0,0 -0.24,-0.4 -0.4,-0.68 -0.16,-0.28 -0.36,-0.28 -0.36,-0.68 0,-0.4 0.2,-0.36 0,-0.68 -0.2,-0.32 -0.88,-0.92 -0.88,-0.92 0,0 -0.24,-0.64 -0.28,-0.92 -0.04,-0.28 -0.16,-0.44 -0.16,-0.68 0,-0.24 -1.12,-1.2 -1.24,-1.43 -0.12,-0.24 -0.16,-0.28 -0.24,-0.52 -0.08,-0.24 -0.16,-0.32 -0.24,-0.56 -0.08,-0.24 -0.16,-0.48 -0.16,-0.48 0,0 0.56,-0.6 0.92,-0.6 0.36,0 0.96,-0.04 0.96,-0.04l0.76 -0.12 0.56 -0.04 0.88 0.4 0.96 0.88 0.36 0.48 0.4 0.6 0.88 0.56c0,0 0.56,0.4 0.68,0.72 0.12,0.32 0.28,0.52 0.28,0.52 0,0 0.12,-1.43 0.04,-1.67 -0.08,-0.24 -0.28,-0.6 -0.36,-0.88 -0.08,-0.28 -0.2,-0.44 -0.28,-0.84 -0.08,-0.4 -0.2,-0.6 -0.2,-1.04 0,-0.44 0,-0.56 -0.08,-0.96 -0.08,-0.4 -0.28,-0.8 -0.4,-1.16 -0.12,-0.36 -0.2,-0.36 -0.24,-0.72 -0.04,-0.36 -0.12,-0.2 0.04,-0.68 0.16,-0.48 0.24,-0.72 0.4,-0.96 0.16,-0.24 0.12,-0.24 0.28,-0.48 0.16,-0.24 0.2,-0.28 0.32,-0.52 0.12,-0.24 0.16,-0.2 0.28,-0.6 0.12,-0.4 0.16,-0.28 0.24,-0.72 0.08,-0.44 0.16,-0.8 0.16,-0.8 0,0 0.4,-0.48 0.76,-0.72 0.36,-0.24 0.48,-0.36 0.72,-0.4 0.24,-0.04 0.28,0 0.64,-0.08 0.36,-0.08 0.64,-0.08 0.64,-0.08 0,0 0.16,-0.32 0.6,0.2 0.44,0.52 0.52,0.6 0.68,0.88 0.16,0.28 0.16,0.32 0.28,0.6 0.12,0.28 0.2,0.48 0.2,0.48l0.04 0.48 0.08 0.72c0,0 0.24,0.24 0.44,0.48 0.2,0.24 0.48,0.52 0.48,0.52 0,0 0.12,0.24 0.16,0.56 0.04,0.32 0.2,0.88 0.2,0.88l0.64 0.56 0.84 0.36 0.6 0.16 0.64 0 0.6 -0.12 0.56 -0.08 0.64 0.08 0.48 0.48c0,0 0.2,0.28 0.36,0.52 0.16,0.24 0.36,0.56 0.36,0.56 0,0 0.04,0.12 0.04,0.48 0,0.36 -0.08,0.32 0.12,0.72 0.2,0.4 0.32,0.6 0.32,0.6 0,0 -0.04,0.24 -0.32,0.68 -0.28,0.44 -0.32,0.6 -0.56,1.08 -0.24,0.48 -0.56,1.2 -0.56,1.2l-0.36 0.52c-0.16,0.44 -0.24,0.72 -0.24,0.96 0,0.24 0.08,0.68 0.08,0.68 0,0 0.16,-0.24 0.08,0.56 -0.08,0.8 -0.08,0.92 -0.08,0.92l-0.68 1.47c0,0 -0.72,0.44 -0.76,0.72 -0.04,0.28 0.08,0.68 0.08,0.68 0,0 0.12,0.4 0.16,0.64 0.04,0.24 0.12,0.64 0.12,0.64l0 0.64c0,0 -0.08,0.2 -0.24,0.6 -0.16,0.4 -0.24,0.68 -0.36,0.96 -0.12,0.28 -0.64,0.76 -0.64,0.76 0,0 -0.08,0.32 -0.2,0.68 -0.12,0.36 -0.04,0.6 0,0.92 0.04,0.32 0,0.8 0,0.8l-0.16 0.96 -0.8 1.43 -0.12 0.52 -0.04 0.48c0,0 0.4,0.04 0.64,0.04 0.24,0 0.48,0.04 0.72,0.12 0.24,0.08 0.76,0.36 0.76,0.36 0,0 0.4,0.4 0.56,0.68 0.16,0.28 0.56,1 0.56,1l0.36 0.52 0.24 0.4 0.56 0.86z"/>
   <path class="fil1" d="M19.17 75.06l-1.56 -2.66 -0.86 -1.72 -0.55 -1.88 -2.27 0.86 -1.41 -1.17 -0.63 -1.95c0,0 -0.86,-1.41 -0.94,-1.88 -0.08,-0.47 -0.08,-2.11 -0.08,-2.11l-1.41 -1.25c0,0 0,-1.09 0,-1.64 0,-0.55 -0.31,-2.11 -0.31,-2.11l-1.25 -1.33 -1.02 -1.25c0,0 -0,-1.02 -0.08,-1.72 -0.08,-0.7 0.16,-1.88 0.16,-2.81 0,-0.94 0.08,-2.34 0.08,-2.34l1.48 -5.31 -1.02 -1.8 1.41 -2.34c0,0 0.23,-0.86 0.39,-1.33 0.16,-0.47 1.09,-3.91 1.02,-4.46 -0.08,-0.55 0,-1.72 0,-1.72 0,0 0.7,-1.17 1.25,-1.48 0.55,-0.31 1.48,-1.41 1.64,-1.95 0.16,-0.55 0.55,-1.64 0.7,-2.11 0.16,-0.47 0.78,-1.56 1.25,-1.95 0.47,-0.39 1.41,-1.17 1.41,-1.17 0,0 1.09,-0.7 1.41,-1.25 0.31,-0.55 0.78,-1.8 0.78,-1.8l0.39 -2.35 1.67 -1.83 1.51 -1.59 1.91 -0.16c0,0 1.12,0.24 1.67,-0.08 0.56,-0.32 1.43,-1.75 1.43,-1.75l2.31 -1.43 2.79 -1.12 1.12 0 0.7 0.3c0,0 0.04,0.38 -0.04,0.52 -0.08,0.14 -0.46,0.72 -0.6,1.02 -0.14,0.3 -0.34,0.82 -0.54,1.1 -0.2,0.28 -0.74,0.9 -0.88,1 -0.14,0.1 -0.46,0.48 -0.62,0.72 -0.16,0.24 -0.48,0.72 -0.52,0.9 -0.04,0.18 0.04,0.52 0.04,0.52 0,0 -0.3,0.38 -0.42,0.68 -0.12,0.3 -0.44,1.43 -0.44,1.43 0,0 -0.12,0.34 -0.16,0.56 -0.04,0.22 -0.96,2.31 -0.96,2.31 0,0 0.16,0.64 0.18,0.86 0.02,0.22 0.02,0.52 0.04,0.68 0.02,0.16 0.04,0.5 0.02,0.62 -0.02,0.12 -0.06,0.46 -0.1,0.74 -0.04,0.28 -0.08,0.42 -0.04,0.6 0.04,0.18 0.06,1.35 0.06,1.35l0.76 0.36c0,0 0.2,0.32 0.32,0.8 0.12,0.48 0.2,1.16 0.32,1.59 0.12,0.44 0.48,1.19 0.48,1.19 0,0 0.2,0.24 0.4,0.56 0.2,0.32 0.44,0.72 0.6,1.04 0.16,0.32 0.52,0.8 0.6,1.04 0.08,0.24 0.44,0.92 0.44,0.92l0.68 0.6 -0.08 3.07 0.96 0.84 0.6 0.28 1.04 0.6c0,0 0.32,1.59 0.28,1.83 -0.04,0.24 -0.32,1.08 -0.32,1.08l0.2 2.67 0.16 1.08 -1.51 0.12 -0.8 -0.88 -0.44 -0.96c0,0 -0.6,-0.96 -0.8,-1.2 -0.2,-0.24 -0.6,-0.52 -0.6,-0.52 0,0 -0.12,-0.2 -0.48,-0.32 -0.36,-0.12 -0.64,-0.2 -0.64,-0.2l-0.8 0.12c0,0 -0.4,0.4 -0.6,0.88 -0.2,0.48 -0.36,1.04 -0.4,1.31 -0.04,0.28 -0.24,0.96 -0.32,1.31 -0.08,0.36 -0.44,1.12 -0.44,1.12l-0.36 0.52 -0.52 0.44 -0.48 0.6 -0.08 0.76c0,0 -1.23,0.32 -1.47,0.36 -0.24,0.04 -0.8,-0.04 -0.8,-0.04 0,0 -0.28,-0.24 -0.52,-0.64 -0.24,-0.4 -0.36,-0.64 -0.44,-0.88 -0.08,-0.24 -0.16,-0.52 -0.16,-0.52 0,0 -0.04,-0.28 -0.12,-0.64 -0.08,-0.36 -0.2,-0.64 -0.28,-0.88 -0.08,-0.24 -0.2,-0.68 -0.36,-1.04 -0.16,-0.36 -0.36,-1 -0.36,-1.27 0,-0.28 0.04,-0.4 -0.08,-0.64 -0.12,-0.24 -1.31,-0.68 -1.31,-0.68l-0.8 0.88 -0.48 0.64c0,0 -0.36,0.64 -0.52,1.12 -0.16,0.48 -0.36,1.47 -0.36,1.47l0 1.31c0,0 -0.44,0.6 -0.56,0.84 -0.12,0.24 -0.24,0.52 -0.24,0.52 0,0 -0.04,0.44 0.04,0.72 0.08,0.28 0.16,0.72 0.2,1.12 0.04,0.4 0.08,0.88 0.08,0.88l0.04 0.76c0,0 0.36,0.92 0.48,1.4 0.12,0.48 0.16,2.43 0.16,2.43 0,0 0.04,0.68 0.08,0.96 0.04,0.28 0.08,0.72 0.16,1 0.08,0.28 0.12,0.6 0.16,0.88 0.04,0.28 0.2,0.92 0.2,0.92 0,0 -0.04,0.36 0.36,0.64 0.4,0.28 0.72,0.56 0.72,0.56 0,0 0.24,0.32 0.36,0.6 0.12,0.28 0.24,0.48 0.32,0.76 0.08,0.28 0.8,1.28 1,1.51 0.2,0.24 0.84,0.96 1,1.2 0.16,0.24 0.48,0.6 0.48,0.6 0,0 0.16,0.2 0.32,0.52 0.16,0.32 0.4,1.12 0.64,1.35 0.24,0.24 0.72,0.8 0.72,0.8l0.6 2.07c0,0 0.28,0.64 0.4,0.88 0.12,0.24 0.12,0.12 0.24,0.6 0.12,0.48 0.2,0.8 0.12,1.08 -0.08,0.28 -0.52,1.08 -0.52,1.08l-0.48 0.52 -0.64 0.48 -0.8 -1.04 -0.04 -0.8c0,0 0.04,-0.4 0,-0.68 -0.04,-0.28 -0.2,-0.6 -0.2,-0.6l-1.19 -0.76c0,0 -0.28,-0.08 -0.56,-0.16 -0.28,-0.08 -0.44,-0.2 -0.92,0 -0.48,0.2 -1.12,0.72 -1.12,0.72l-0.36 0.76 -0.5 2.56 -0.09 0.54 -0.38 0.68 -0.55 0.07z"/>
   <path class="fil1" d="M73.48 76.28l-1.78 -0.84 -0.93 -2.36 0.93 -1.86c0,0 1.52,-1.26 1.52,-1.94 0,-0.68 0,-1.69 -0.13,-1.21l1.68 -1.35 -0.56 -1.75c0,0 0.88,-0.8 1.12,-1.35 0.24,-0.56 0.48,-1.27 0.48,-1.75 0,-0.48 0.16,-0.64 0.16,-1.19 0,-0.56 -0.8,-2.63 -0.8,-2.63l-0.08 -1.43 0.24 -1.35 -0.48 -0.88 -0.8 -0.24 -0.4 -1.28c0,0 0.16,-0.32 0.24,-1.04 0.08,-0.72 0.08,-1.04 0.4,-1.67 0.32,-0.64 0.48,-0.8 0.72,-1.35 0.24,-0.56 0.32,-0.8 0.4,-1.35 0.08,-0.56 0.24,-0.56 0.16,-1.12 -0.08,-0.56 -0.16,-0.96 -0.08,-1.43 0.08,-0.48 0.08,-0.48 0.24,-1.2 0.16,-0.72 -0.72,-2.55 -0.72,-2.55l-2.32 -7.89 -2 -2.31 -2.08 -1.43c0,0 -0.8,-1.12 -0.8,-1.83 0,-0.72 -0.08,-1.04 -0.08,-1.75 0,-0.72 0.16,-0.8 -0.08,-1.51 -0.24,-0.72 -0.56,-1.19 -0.8,-1.67 -0.24,-0.48 -0.84,-0.52 -0.84,-0.52l-0.96 -0.28c0,0 0.12,1.71 0.12,2.03 0,0.32 -0.12,0.76 -0.12,1.12 0,0.36 -0.16,1.08 -0.16,1.08 0,0 -0.16,0.2 -0.28,0.6 -0.12,0.4 -0.2,1.43 -0.2,1.43 0,0 -0.52,0.44 -0.6,0.8 -0.08,0.36 0.04,0.92 0.04,0.92 0,0 0.64,1.08 0.72,1.35 0.08,0.28 0.24,0.52 0.36,0.8 0.12,0.28 0.64,1.16 0.8,1.39 0.16,0.24 0.96,1.79 0.96,1.79l0.36 1 -0.48 1.35 -1.08 -0.04 -0.76 -0.84c0,0 -0.56,-0.36 -0.8,-0.44 -0.24,-0.08 -0.68,-0.04 -0.88,-0.32 -0.2,-0.28 -0.8,-1.51 -0.88,-1.83 -0.08,-0.32 -0.28,-1.08 -0.36,-1.31 -0.08,-0.24 -0.24,-0.52 -0.28,-0.76 -0.04,-0.24 -0.08,-0.88 -0.12,-1.23 -0.04,-0.36 -0.28,-2.27 -0.52,-2.75 -0.24,-0.48 -0.64,-0.8 -0.96,-1.23 -0.32,-0.44 -1,-1.83 -1.4,-2.35 -0.4,-0.52 -0.76,-0.92 -1,-1.08 -0.24,-0.16 -0.76,-0.32 -0.76,-0.32l-1.08 0 -0.52 1.16c0,0 -0.68,0.68 -0.8,1.04 -0.12,0.36 -0.8,1.63 -0.8,1.63l-0.6 0.8 -1.32 -0.8c0,0 -0.88,-0.56 -1.2,-0.76 -0.32,-0.2 -2.84,-1.59 -2.96,-2.03 -0.12,-0.44 -0.88,-1.67 -1.08,-1.99 -0.2,-0.32 -0.64,-0.84 -0.64,-0.84l-0.6 -0.36c0,0 -0.32,-1.12 -0.48,-1.67 -0.16,-0.56 -0.2,-0.76 -0.2,-1.16 0,-0.4 0.12,-1.83 0.12,-1.83l1.12 -3.39c0,0 0.64,-0.88 0.72,-1.11 0.08,-0.24 0.56,-1.08 0.76,-1.39 0.2,-0.32 0.56,-1.12 0.56,-1.12l0.84 -0.28c0,0 0.6,0 0.88,0 0.28,0 2.8,0 2.8,0 0,0 0.56,-0.28 0.8,-0.36 0.24,-0.08 0.92,-0.16 1.16,-0.28 0.24,-0.12 1,-0.68 1,-0.68l0.96 -1.35 1.68 -0.12c0,0 0.36,0.16 0.6,0.16 0.24,0 0.76,0.16 0.76,0.16l1.56 0.56 2.48 1.27c0,0 0.32,0.16 0.6,0.32 0.28,0.16 1,0.68 1.44,0.88 0.44,0.2 0.92,0.4 1.2,0.52 0.28,0.12 1.76,1.04 1.76,1.04 0,0 1.56,1.04 1.84,1.2 0.28,0.16 0.28,0.12 0.6,0.28 0.32,0.16 2.84,1.95 2.84,1.95l2 0.8 0.88 0.24c0,0 0.72,0.56 0.96,1.04 0.24,0.48 1.04,1.75 1.04,1.75 0,0 0.48,0.8 0.96,1.2 0.48,0.4 1.36,1.2 1.36,1.2l1.84 1.75 0.56 0.8c0,0 0.16,0.88 0.32,1.43 0.16,0.56 0.32,1.04 0.32,1.04 0,0 0.32,0.24 0.56,0.72 0.24,0.48 1.28,3.11 1.28,3.11 0,0 -0.16,0.24 0.08,0.96 0.24,0.72 0.8,1.67 0.8,1.67l0.4 0.88c0,0 0.56,1.2 0.64,2.23 0.08,1.04 0.24,1.51 0.08,2.31 -0.16,0.8 -0.4,1.2 -0.41,1.75 0.16,0.56 0.88,2.95 0.88,2.95 0,0 0.08,1.04 0.08,1.59 0,0.56 -0.24,1.11 -0.4,1.75 -0.16,0.64 -0.16,1.2 -0.16,1.2 0,0 -0.08,1.04 0.08,1.67 0.16,0.64 0.32,1.2 0.4,1.75 0.08,0.56 -0.24,2.79 -0.24,2.79l-0.72 2.15 -0.32 1.04c0,0 -0.08,0.48 -0.24,0.96 -0.16,0.48 -0.64,0.8 -0.64,0.8l-1.12 -0.56 -1.04 -1.67c0,0 -0.8,-0.8 -1.35,-1.19 -0.56,-0.4 -1.27,-0.96 -1.27,-0.96l-0.88 -0.72 -1.91 -2.07 -1.12 0.2 -0.32 1c0,0 0.04,1.08 0.04,1.43 0,0.36 -0,0.64 0.12,1.28 0.12,0.64 0.16,1.04 0.2,1.39 0.04,0.36 0.16,2.11 0.16,2.11l0.16 0.6 0.36 0.76 0.4 0.8 0.76 1.55 0.52 0.68 0.84 3.11c0,0 0.24,0.88 0.36,1.11 0.12,0.24 0.24,0.8 0.24,1.12 0,0.32 -0.04,0.68 -0.2,1.04 -0.16,0.36 -0.4,0.92 -0.52,1.2 -0.12,0.28 -0.24,0.36 -0.36,0.68 -0.12,0.32 -0.4,1.4 -0.4,1.4l-1.04 0 -0.68 -0.36 -0.68 -1.31c0,0 -0.92,-0.8 -1.16,-0.8 -0.24,0 -0.76,0.28 -0.76,0.28l-0.44 0.64 -0.28 0.72c0,0 -0.12,0.24 -0.2,0.56 -0.08,0.32 -0.04,0.52 -0.04,0.88 0,0.36 -0.12,1.12 -0.12,1.12l-0.44 1.18 -0.33 1.09z"/>
  </g>
 </g>
</svg>
