<?xml version="1.0" encoding="UTF-8"?>
<!DOCTYPE svg PUBLIC "-//W3C//DTD SVG 1.1//EN" "http://www.w3.org/Graphics/SVG/1.1/DTD/svg11.dtd">
<!-- Creator: CorelDRAW 2018 (64 Bit) -->
<svg xmlns="http://www.w3.org/2000/svg" xml:space="preserve" width="13.1234mm" height="13.1234mm" version="1.1" style="shape-rendering:geometricPrecision; text-rendering:geometricPrecision; image-rendering:optimizeQuality; fill-rule:evenodd; clip-rule:evenodd"
viewBox="0 0 103.09 103.09"
 xmlns:xlink="http://www.w3.org/1999/xlink">
 <defs>
  <style type="text/css">
   <![CDATA[
    .str0 {stroke:#616161;stroke-width:3.33;stroke-miterlimit:22.9256}
    .fil0 {fill:#616161}
    .fil1 {fill:white}
   ]]>
  </style>
 </defs>
 <g id="Capa_x0020_1">
  <metadata id="CorelCorpID_0Corel-Layer"/>
  <g id="_1898218333504">
   <circle class="fil0 str0" cx="51.55" cy="51.55" r="49.88"/>
   <path class="fil1" d="M16.42 76.13l-2.31 0.26 -2.06 -3 -0.94 -1.29c0,0 -1.11,-1.2 -1.2,-1.71 -0.09,-0.51 -0.6,-2.66 -0.69,-3.17 -0.09,-0.51 -0.26,-1.97 -0.51,-2.48 -0.26,-0.51 -1.2,-2.06 -1.2,-2.06l-1.2 -1.97 0.43 -2.06c0,0 0.43,-2.06 0.17,-2.57 -0.26,-0.51 -0.77,-1.46 -0.77,-1.46l-0.43 -2.31c0,0 0.26,-1.11 0.34,-1.63 0.09,-0.51 0.17,-1.63 0.17,-2.14 0,-0.51 0.51,-1.71 0.94,-2.23 0.43,-0.51 0.77,-0.6 0.77,-1.2 0,-0.6 -0.26,-1.63 -0.26,-1.63 0,0 1.46,-1.03 1.37,-1.54 -0.09,-0.51 -0.34,-1.29 -0.34,-1.29l-0.09 -1.37c0,0 0.17,-0.77 0.43,-1.46 0.26,-0.69 0.51,-1.37 0.51,-1.37l1.8 -2.74c0,0 0.26,-1.54 0.34,-2.23 0.09,-0.69 0.09,-1.63 0.17,-2.14 0.09,-0.51 0.51,-1.29 0.86,-1.97 0.34,-0.69 0.34,-0.86 0.94,-1.71 0.6,-0.86 0.94,-1.71 1.37,-2.31 0.43,-0.6 0.43,-0.77 1.37,-1.46 0.94,-0.69 1.63,-1.89 1.63,-1.89l2.23 -1.2 1.89 -1.46c0,0 0.69,-0.6 1.54,-1.2 0.86,-0.6 1.97,-1.2 1.97,-1.2 0,0 1.71,-0.69 2.31,-0.94 0.6,-0.26 1.71,-0.77 2.31,-1.29 0.6,-0.51 1.2,-1.11 1.97,-1.71 0.77,-0.6 1.63,-1.03 1.63,-1.03l1.29 -0.43 4.37 -1.24 4.71 -0.6 1.8 -0.09 8.41 -0.44 4.2 0.26 1.53 0.27 5.4 0.56c0,0 0.51,0.34 1.03,0.43 0.51,0.09 4.2,2.14 4.2,2.14l2.57 0.86 1.63 1.03c0,0 1.29,0.94 1.8,1.29 0.51,0.34 1.97,1.46 1.97,1.46l1.2 1.03 1.03 1.29 2.4 3.08 1.63 1.37 1.29 1.8 2.31 2.57c0,0 0.17,1.46 0.17,2.06 0,0.6 0.94,2.91 0.94,2.91l1.54 1.29 1.71 4.2 0.6 1.8c0,0 0.43,0.86 0.6,1.37 0.17,0.51 0.51,4.97 0.51,4.97 0,0 0.51,0.69 0.6,1.2 0.09,0.51 0.09,1.63 0.17,2.31 0.09,0.69 0.09,0.77 0.17,1.88 0.09,1.11 0.17,1.54 0.17,2.06 0,0.51 0.09,3.26 0.09,4.11 0,0.86 -0.69,2.91 -0.69,2.91l-0.51 1.11 0.09 4.88c0,0 -0.17,1.29 -0.34,1.8 -0.17,0.51 -0.69,1.8 -0.69,1.8 0,0 -0.69,1.29 -0.94,1.8 -0.26,0.51 -0.69,1.63 -0.69,1.63 0,0 -0.6,1.29 -0.77,1.89 -0.17,0.6 -0.6,1.8 -0.6,1.8l-0.86 1.03c0,0 -0.69,0.51 -1.37,0.6 -0.69,0.09 -1.8,0.26 -1.8,0.26l-1.54 0.09c0,0 -0.26,-1.8 -0.09,-2.4 0.17,-0.6 0.77,-1.63 0.77,-1.63l0.77 -1.03c0,0 0.34,-1.03 0.6,-1.71 0.26,-0.69 0.43,-1.11 0.69,-1.63 0.26,-0.51 0.43,-0.6 0.69,-1.11 0.26,-0.51 0.6,-0.94 0.6,-0.94l0.86 -1.2 0.09 -0.94c0,0 -0.09,-2.14 0.09,-3 0.17,-0.86 0.26,-1.2 0.26,-1.2 0,0 0.09,-0.69 0.17,-1.54 0.09,-0.86 0.34,-1.29 0.09,-2.31 -0.26,-1.03 -0.26,-1.03 -0.34,-2.23 -0.09,-1.2 0,-1.8 0,-2.57 0,-0.77 0,-1.03 0,-2.06 0,-1.03 0.26,-1.46 0.17,-2.31 -0.09,-0.86 0.08,-1.2 -0.09,-1.89 -0.17,-0.69 -0.43,-0.86 -0.86,-1.97 -0.43,-1.11 -0.51,-1.37 -0.77,-2.06 -0.26,-0.69 -0.51,-0.94 -0.6,-1.54 -0.09,-0.6 -1.46,-3.43 -1.46,-3.43 0,0 -0.34,-0.51 -0.34,-1.11 0,-0.6 -0.17,-1.11 -0.17,-1.11l-1.03 -0.77c0,0 -0.43,-0.17 -0.94,-1.03 -0.51,-0.86 -0.69,-1.11 -1.03,-1.71 -0.34,-0.6 -0.94,-1.37 -0.94,-1.37l-0.69 -0.69 -1.03 -0.43c0,0 -0.26,-0.26 -0.77,-0.69 -0.51,-0.43 -0.51,-0.6 -1.03,-1.03 -0.51,-0.43 -0.69,-0.34 -0.94,-0.86 -0.26,-0.51 -0.6,-1.63 -0.6,-1.63 0,0 0.43,-0.17 -0.6,-0.69 -1.03,-0.51 -1.97,-0.94 -1.97,-0.94 0,0 -0.77,-0.51 -1.29,-0.77 -0.51,-0.26 -1.03,-1.29 -1.54,-1.97 -0.51,-0.69 -0.34,-0.77 -0.94,-0.94 -0.6,-0.17 -2.66,-0.26 -3.26,-0.34 -0.6,-0.09 -1.11,-0.26 -1.71,-0.69 -0.6,-0.43 -1.54,-1.03 -1.54,-1.03 0,0 -0.26,-0.34 -1.63,-0.86 -1.37,-0.51 -1.8,-0.69 -1.8,-0.69 0,0 1.28,0.34 -0.94,0 -2.23,-0.34 -2.14,-0.26 -2.74,-0.43 -0.6,-0.17 -1.11,-0.26 -1.11,-0.26 0,0 -0.94,-0.09 -1.54,-0.09 -0.6,0 -1.63,-0.09 -2.4,0.09 -0.77,0.17 -1.89,0.6 -2.4,0.6 -0.51,0 -1.11,0.08 -1.97,0.08 -0.86,0 -2.4,0 -2.91,-0.08 -0.51,-0.09 -1.54,-0.09 -2.06,0 -0.51,0.08 -0.77,0.34 -1.63,0.43 -0.86,0.09 -1.63,0.43 -1.63,0.43l-1.11 0.6 -2.64 2.12c0,0 -1.54,0.43 -1.97,0.47 -0.43,0.04 -1.16,0.3 -1.46,0.39 -0.3,0.09 -1.11,0.43 -1.59,0.69 -0.47,0.26 -1.46,0.69 -2.01,1.07 -0.56,0.39 -1.37,1.03 -1.63,1.16 -0.26,0.13 -0.86,0.77 -0.86,0.77 0,0 -0.26,0.38 -0.6,0.77 -0.34,0.39 -0.69,0.77 -1.11,1.29 -0.43,0.51 -0.9,1.24 -1.33,1.54 -0.43,0.3 -0.94,0.6 -1.33,0.99 -0.38,0.39 -0.73,0.69 -0.9,1.07 -0.17,0.39 -3.21,3.34 -3.21,3.34 0,0 -0.09,0.81 -0.17,1.07 -0.09,0.26 -0.26,0.81 -0.43,1.2 -0.17,0.39 -0.3,0.9 -0.56,1.33 -0.26,0.43 -0.47,0.56 -0.9,1.29 -0.43,0.73 -0.43,0.73 -0.56,0.99 -0.13,0.26 -0.26,0.69 -0.26,0.69l-1.84 3.17c0,0 -0.17,1.37 -0.34,1.97 -0.17,0.6 -0.43,1.8 -0.43,1.8 0,0 -0.26,1.11 -0.34,1.71 -0.09,0.6 -0.26,1.89 -0.26,1.89 0,0 -0.17,1.46 0.09,2.31 0.26,0.86 0.6,1.71 0.6,1.71 0,0 0.09,0.77 -0.17,1.46 -0.26,0.69 -0.51,1.37 -0.6,1.89 -0.09,0.51 0.34,2.31 0.34,2.31 0,0 0.34,1.54 0.51,2.06 0.17,0.51 1.54,3.68 1.54,3.68l-0.17 1.2 -0.34 1.46 0.47 2.61 0.9 0.94 0.64 0.6c0,0 0.13,0.56 0.26,0.81 0.13,0.26 0.13,0.21 0.3,0.73 0.17,0.51 0.26,1.07 0.26,1.07l-0.11 0.83z"/>
   <path class="fil1" d="M42.97 90.87l-0.56 0.94 -1.41 -0.21 -1.84 -0.86 -1.37 -0.73c0,0 -0.9,-0.86 -1.16,-0.99 -0.26,-0.13 -0.6,-0.21 -0.94,-0.3 -0.34,-0.09 -1.67,-1.5 -1.67,-1.5l-0.86 -1.16 -0.99 -1.63 -1.46 -1.24 -0.34 -0.94 -0.73 -1.46 -0.69 -0.77c0,0 -0.21,-0.39 -0.43,-0.69 -0.21,-0.3 -0.73,-0.6 -0.73,-0.6 0,0 -0.39,-0.77 -0.39,-1.2 0,-0.43 0.09,-0.3 0,-0.73 -0.09,-0.43 -0.13,-0.6 -0.17,-1.24 -0.04,-0.64 0.04,-0.9 0,-1.2 -0.04,-0.3 -0.13,-0.81 -0.17,-1.11 -0.04,-0.3 -0.47,-0.99 -0.47,-1.76 0,-0.77 0,-0.81 0,-1.2 0,-0.39 0,-1.24 0.04,-1.63 0.04,-0.39 0.04,-0.69 0.04,-0.69 0,0 0,-2.06 -0.09,-2.36 -0.09,-0.3 -0.21,-1.41 -0.04,-2.01 0.17,-0.6 0.3,-1.07 0.3,-1.46 0,-0.39 -0.17,-0.81 -0.04,-1.16 0.13,-0.34 0.3,-0.43 0.47,-0.69 0.17,-0.26 0.26,-0.43 0.38,-0.77 0.13,-0.34 0.3,-0.73 0.22,-1.41 -0.09,-0.69 -0.17,-1.11 -0.17,-1.37 0,-0.26 0.34,-0.86 0.34,-0.86l1.24 -0.81c0,0 0.39,0.04 0.73,-0.21 0.34,-0.26 0.86,-0.73 0.86,-0.73 0,0 -0.3,-1.24 -0.3,-1.59 0,-0.34 0.17,-0.9 0.17,-0.9l0.21 -0.56 0.6 -1.2 0.94 -0.3c0,0 0.51,-0.47 0.73,-0.73 0.21,-0.26 0.77,-0.64 1.07,-0.86 0.3,-0.21 0.51,-0.38 0.9,-0.56 0.39,-0.17 0.69,-0.09 1.16,-0.3 0.47,-0.21 1.07,-0.43 1.33,-0.69 0.26,-0.26 1.24,-1.03 1.24,-1.03l1.16 -0.9 0.81 -0.39 1.11 -0.99 1.18 -0.66 0.94 -0.24 0.88 -0.19 0.58 -0.02 0.73 0.19 0.41 0.3c0,0 -0.26,0.58 -0.39,0.69 -0.13,0.11 -0.56,0.66 -0.75,0.77 -0.19,0.11 -0.45,0.36 -0.45,0.36 0,0 -0.3,0.17 -0.54,0.26 -0.24,0.08 -0.56,0.17 -0.73,0.32 -0.17,0.15 -0.36,0.32 -0.41,0.47 -0.04,0.15 0.02,0.32 -0.11,0.47 -0.13,0.15 -0.32,0.3 -0.54,0.53 -0.21,0.24 -0.36,0.32 -0.49,0.56 -0.13,0.24 -0.19,0.45 -0.28,0.69 -0.09,0.24 -0.06,0.38 -0.15,0.6 -0.09,0.22 -0.39,0.86 -0.49,1.05 -0.11,0.19 -0.21,0.58 -0.24,0.77 -0.02,0.19 0,0.02 -0.04,0.45 -0.04,0.43 -0.24,1.41 -0.28,1.71 -0.04,0.3 0.26,3.86 0.26,3.86 0,0 0.26,1.16 0.43,1.5 0.17,0.34 0.43,0.9 0.6,1.2 0.17,0.3 0.43,0.64 0.43,0.64l0.77 0.64c0,0 0.17,0.47 0.47,0.69 0.3,0.21 0.6,0.43 0.6,0.43l0.77 0.3c0,0 1.24,0.51 1.67,0.69 0.43,0.17 0.77,0.3 1.07,0.39 0.3,0.09 0.69,0.21 1.11,0.34 0.43,0.13 0.64,0.21 1.16,0.3 0.51,0.09 0.56,0.13 1.16,0.13 0.6,0 1.41,-0.09 1.8,-0.13 0.39,-0.04 1.89,-0.3 2.14,-0.3 0.26,0 1.24,-0.26 1.54,-0.56 0.3,-0.3 0.34,-0.21 0.77,-0.51 0.43,-0.3 0.34,-0.17 0.73,-0.51 0.39,-0.34 1.03,-0.56 1.07,-0.86 0.04,-0.3 0.56,-1.07 0.56,-1.07 0,0 0.3,-0.09 0.51,-0.47 0.21,-0.39 0.34,-0.51 0.51,-0.9 0.17,-0.39 0.34,-0.73 0.47,-1.11 0.13,-0.39 0.21,-0.64 0.43,-1.29 0.21,-0.64 0.43,-0.77 0.47,-1.16 0.04,-0.39 0.13,-0.09 0.04,-0.94 -0.09,-0.86 -0.09,-1.16 -0.09,-1.67 0,-0.51 0.21,-0.47 -0.09,-1.11 -0.3,-0.64 -0.34,-0.64 -0.51,-1.07 -0.17,-0.43 -0.13,-0.34 -0.43,-0.86 -0.3,-0.51 -0.38,-0.69 -0.6,-1.11 -0.21,-0.43 -0.3,-0.47 -0.51,-0.86 -0.21,-0.39 -0.43,-0.69 -0.43,-0.69l-0.94 -1.67 -0.9 -0.47c0,0 -0.13,-0.3 -0.17,-0.56 -0.04,-0.26 1.16,-0.99 1.16,-0.99l1.5 0.43 1.2 0.47 0.86 0.3 0.64 0.77 3.08 2.06 0.99 1.03 0.9 0.47 1.37 1.54 0.9 0.73c0,0 0.69,0.77 0.86,1.03 0.17,0.26 1.24,1.76 1.24,1.76 0,0 1.8,2.74 1.93,3 0.13,0.26 0.43,0.81 0.73,1.37 0.3,0.56 0.77,1.29 0.9,1.54 0.13,0.26 0.6,2.36 0.6,2.74 0,0.39 -0.09,0.81 0,1.2 0.09,0.39 0.13,2.27 0.13,2.66 0,0.39 0.04,0.56 0.04,0.94 0,0.39 0.26,1.2 0.26,1.76 0,0.56 0.21,0.09 -0.04,1.63 -0.26,1.54 -0.26,1.8 -0.26,1.8 0,0 0.08,1.24 0.13,1.5 0.04,0.26 0.09,0.51 0.09,0.51l-0.21 2.14 -0.56 0.56c0,0 -0.39,0.77 -0.47,1.03 -0.09,0.26 -0.21,1.24 -0.21,1.24l-0.39 1.16 -0.6 0.56 -0.56 0.3c0,0 -0.39,0.99 -0.47,1.29 -0.08,0.3 -0.26,0.94 -0.26,0.94l-2.01 1.33 -0.56 0.99 -0.64 0.94c0,0 -0.21,0.3 -0.47,0.51 -0.26,0.21 -0.64,0.6 -0.99,0.81 -0.34,0.21 -0.6,0.51 -0.86,0.69 -0.26,0.17 -0.56,0.69 -0.9,0.81 -0.34,0.13 -0.81,0.26 -1.29,0.56 -0.47,0.3 -0.64,0.47 -1.03,0.69 -0.39,0.21 -0.64,0.3 -1.07,0.51 -0.43,0.22 -0.94,0.43 -1.33,0.56 -0.39,0.13 -1.2,0.34 -1.46,0.26 -0.26,-0.09 -1.16,-0.9 -1.16,-0.9l1.2 -1.41c0,0 0.51,-0.34 0.86,-0.69 0.34,-0.34 0.56,-0.51 0.73,-0.77 0.17,-0.26 0.08,-0.17 0.47,-0.51 0.39,-0.34 0.64,-0.56 0.9,-0.86 0.26,-0.3 0.3,-0.17 0.6,-0.73 0.3,-0.56 0.3,-0.51 0.43,-0.94 0.13,-0.43 0.17,-0.51 0.34,-0.99 0.17,-0.47 0.26,-0.69 0.39,-1.03 0.13,-0.34 0.26,-0.64 0.47,-1.16 0.21,-0.51 0.17,-0.04 0.43,-1.03 0.26,-0.99 0.34,-1.37 0.34,-1.76 0,-0.39 0.04,-0.21 -0.04,-0.77 -0.08,-0.56 -0.13,-0.81 -0.34,-1.2 -0.21,-0.39 -0.3,-0.56 -0.51,-0.9 -0.21,-0.34 -0.38,-0.6 -0.56,-0.9 -0.17,-0.3 -0.56,-0.6 -0.56,-0.6l-0.58 -0.45c0,0 -0.81,0.45 -0.88,0.58 -0.07,0.13 -0.22,0.66 -0.24,0.79 -0.02,0.13 -0.11,0.58 -0.15,0.81 -0.04,0.24 -0.06,0.53 -0.06,0.84 0,0.3 -0.02,0.69 -0.06,0.88 -0.04,0.19 -0.13,0.41 -0.17,0.58 -0.04,0.17 -0.21,0.54 -0.21,0.54 0,0 -0.36,0.75 -0.36,0.92 0,0.17 0.15,0.38 0.13,0.58 -0.02,0.19 0.02,0.3 -0.02,0.51 -0.04,0.21 -0.06,0.28 -0.04,0.49 0.02,0.21 0,0.94 0,0.94l-0.32 2.53c0,0 -0.21,0.54 -0.39,0.66 -0.17,0.13 -0.56,0.58 -0.73,0.71 -0.17,0.13 -0.34,0.13 -0.51,0.28 -0.17,0.15 -2.08,1.05 -2.08,1.05 0,0 -0.17,0.41 -0.39,0.47 -0.21,0.06 -0.49,0.13 -0.75,0.15 -0.26,0.02 -0.53,-0 -0.92,0.11 -0.39,0.11 -0.43,0.09 -0.71,0.21 -0.28,0.13 -0.94,0.43 -1.24,0.54 -0.3,0.11 -0.34,0.17 -0.6,0.17 -0.26,0 -0.58,0 -0.88,0 -0.3,0 -0.45,0 -0.81,0 -0.36,0 -0.77,-0.02 -1.14,-0.06 -0.36,-0.04 -1.35,-0.19 -1.35,-0.19l-3.19 -1.16c0,0 -0.3,-0.47 -0.56,-0.56 -0.26,-0.08 -2.31,-1.37 -2.31,-1.37 0,0 0.04,-0.21 -0.13,-0.64 -0.17,-0.43 -0.34,-0.69 -0.64,-1.2 -0.3,-0.51 -0.43,-0.73 -0.64,-1.03 -0.21,-0.3 -0.43,-0.34 -0.6,-0.94 -0.17,-0.6 -0.21,-0.86 -0.34,-1.16 -0.13,-0.3 -0.26,-0.56 -0.39,-1.16 -0.13,-0.6 -0.17,-0.81 -0.3,-1.2 -0.13,-0.39 -0.3,-0.77 -0.34,-1.16 -0.04,-0.39 -0.13,-0.34 0,-0.81 0.13,-0.47 0.17,-0.39 0.26,-0.94 0.09,-0.56 0.13,-0.69 0.17,-1.16 0.04,-0.47 0.13,-0.99 0.13,-0.99l-0.69 -0.86 -0.94 0.11 -0.75 0.06 -0.19 0.26c0,0 -0.19,0.24 -0.21,0.39 -0.02,0.15 -0.13,0.54 -0.13,0.54l-0.06 0.3 -0.37 1.01 -0.15 0.3 -0.17 0.21c0,0 -0.15,0.15 -0.21,0.28 -0.06,0.13 -0.11,0.36 -0.15,0.54 -0.04,0.17 -0.09,0.34 -0.19,0.6 -0.11,0.26 -0.21,0.43 -0.26,0.81 -0.04,0.39 -0.04,0.49 0.02,0.77 0.06,0.28 0.17,0.45 0.17,0.62 0,0.17 0.06,0.34 0.08,0.6 0.02,0.26 0.15,0.49 0.15,0.49l0.26 0.21 0.6 0.51 0.17 0.43 0.88 1.4 0.51 0.73 0.51 1.89 0.39 1.03 0.51 0.94 0.3 0.64 0.39 0.56c0,0 0.21,0.17 0.47,0.26 0.26,0.09 0.6,0.17 0.77,0.43 0.17,0.26 0.34,0.47 0.34,0.47l0.67 0.72z"/>
  </g>
 </g>
</svg>
